<svg width="36" height="37" viewBox="0 0 36 37" fill="none" xmlns="http://www.w3.org/2000/svg">
<path d="M36 18.7237C36 23.4951 34.1035 28.0713 30.728 31.4453C27.3524 34.819 22.7738 36.7146 18 36.7146C13.2261 36.7146 8.64774 34.819 5.27209 31.4453C1.89642 28.0713 0 23.4951 0 18.7237C0 13.9523 1.89642 9.37624 5.27209 6.00231C8.64774 2.62837 13.2261 0.73291 18 0.73291C22.7738 0.73291 27.3524 2.62837 30.728 6.00231C34.1035 9.37624 36 13.9523 36 18.7237Z" fill="url(#paint0_linear_36_20643)"/>
<g filter="url(#filter0_d_36_20643)">
<path d="M11.6992 31.2073C11.6992 32.3947 14.5185 32.2058 17.9992 32.2058C21.4777 32.2058 24.2992 32.3947 24.2992 31.2073C24.2992 29.777 21.4777 28.8438 17.9992 28.8438C14.5185 28.8438 11.6992 29.777 11.6992 31.2073Z" fill="#222222"/>
</g>
<path d="M11.6992 31.2073C11.6992 32.3947 14.5185 32.2058 17.9992 32.2058C21.4777 32.2058 24.2992 32.3947 24.2992 31.2073C24.2992 29.777 21.4777 28.8438 17.9992 28.8438C14.5185 28.8438 11.6992 29.777 11.6992 31.2073Z" fill="url(#paint1_linear_36_20643)"/>
<path d="M8.09783 22.8416C8.09783 21.0628 9.30835 19.6235 10.7978 19.6235C12.2896 19.6235 13.4978 21.0628 13.4978 22.8416C13.4978 23.5815 13.2886 24.2652 12.9308 24.8072C12.7637 25.0568 12.5079 25.2335 12.2153 25.3019C11.8778 25.3829 11.3761 25.4706 10.7978 25.4706C10.2196 25.4706 9.7156 25.3829 9.38035 25.3019C9.08744 25.2342 8.83151 25.0572 8.66483 24.8072C8.28813 24.2213 8.09105 23.5381 8.09783 22.8416ZM22.4978 22.8416C22.4978 21.0628 23.7061 19.6235 25.1979 19.6235C26.6874 19.6235 27.8979 21.0628 27.8979 22.8416C27.8979 23.5815 27.6864 24.2652 27.3309 24.8072C27.1641 25.0572 26.9083 25.2342 26.6154 25.3019C26.151 25.413 25.6753 25.4695 25.1979 25.4706C24.6196 25.4706 24.1179 25.3829 23.7804 25.3019C23.4872 25.2335 23.2307 25.0568 23.0626 24.8072C22.6875 24.2207 22.4914 23.5377 22.4978 22.8416Z" fill="url(#paint2_linear_36_20643)"/>
<g filter="url(#filter1_i_36_20643)">
<path d="M8.09783 22.8416C8.09783 21.0628 9.30835 19.6235 10.7978 19.6235C12.2896 19.6235 13.4978 21.0628 13.4978 22.8416C13.4978 23.5815 13.2886 24.2652 12.9308 24.8072C12.7637 25.0568 12.5079 25.2335 12.2153 25.3019C11.8778 25.3829 11.3761 25.4706 10.7978 25.4706C10.2196 25.4706 9.7156 25.3829 9.38035 25.3019C9.08744 25.2342 8.83151 25.0572 8.66483 24.8072C8.28813 24.2213 8.09105 23.5381 8.09783 22.8416ZM22.4978 22.8416C22.4978 21.0628 23.7061 19.6235 25.1979 19.6235C26.6874 19.6235 27.8979 21.0628 27.8979 22.8416C27.8979 23.5815 27.6864 24.2652 27.3309 24.8072C27.1641 25.0572 26.9083 25.2342 26.6154 25.3019C26.151 25.413 25.6753 25.4695 25.1979 25.4706C24.6196 25.4706 24.1179 25.3829 23.7804 25.3019C23.4872 25.2335 23.2307 25.0568 23.0626 24.8072C22.6875 24.2207 22.4914 23.5377 22.4978 22.8416Z" fill="#222222"/>
</g>
<path d="M11.1808 21.7198C11.1918 21.7723 11.1971 21.8259 11.1965 21.8796C11.1965 22.3318 10.8005 22.7031 10.31 22.7031C9.82178 22.7031 9.42578 22.3318 9.42578 21.8796C9.42578 21.6928 9.49328 21.5196 9.60578 21.3823C10.1098 21.5016 10.6385 21.6163 11.1808 21.7198ZM24.5143 22.7031C24.0396 22.7031 23.6526 22.3588 23.6301 21.9201C24.2128 21.8346 24.7911 21.7288 25.3536 21.6141C25.3846 21.6998 25.3999 21.7906 25.3986 21.8818C25.3986 22.3318 25.0048 22.7031 24.5143 22.7031Z" fill="#4F4F67"/>
<g filter="url(#filter2_d_36_20643)">
<path d="M20.2491 17.8244C20.2491 16.8214 20.6158 16.4751 21.2503 16.4751C21.8803 16.4751 22.1818 17.0958 22.3888 18.8724C24.9268 18.8724 29.2243 17.6715 29.6383 17.6715C30.0388 17.6715 30.2616 17.8626 30.3516 18.2719C30.4303 18.6272 30.2998 18.9646 29.8543 19.1715C28.4571 19.8169 24.3576 21.2741 20.8903 21.2741C20.5123 21.2741 20.2491 21.0807 20.2491 20.5972V17.8244ZM13.6093 18.8724C13.8163 17.0958 14.1178 16.4751 14.7478 16.4751C15.3823 16.4751 15.7491 16.8214 15.7491 17.8244V20.5972C15.7491 21.0807 15.4858 21.2741 15.1078 21.2741C11.6406 21.2741 7.54107 19.8169 6.14382 19.1715C5.69832 18.9646 5.56782 18.6272 5.64657 18.2719C5.73882 17.8626 5.96157 17.6715 6.35982 17.6715C6.77382 17.6715 11.0713 18.8724 13.6093 18.8724Z" fill="#222222"/>
</g>
<path d="M20.2491 17.8244C20.2491 16.8214 20.6158 16.4751 21.2503 16.4751C21.8803 16.4751 22.1818 17.0958 22.3888 18.8724C24.9268 18.8724 29.2243 17.6715 29.6383 17.6715C30.0388 17.6715 30.2616 17.8626 30.3516 18.2719C30.4303 18.6272 30.2998 18.9646 29.8543 19.1715C28.4571 19.8169 24.3576 21.2741 20.8903 21.2741C20.5123 21.2741 20.2491 21.0807 20.2491 20.5972V17.8244ZM13.6093 18.8724C13.8163 17.0958 14.1178 16.4751 14.7478 16.4751C15.3823 16.4751 15.7491 16.8214 15.7491 17.8244V20.5972C15.7491 21.0807 15.4858 21.2741 15.1078 21.2741C11.6406 21.2741 7.54107 19.8169 6.14382 19.1715C5.69832 18.9646 5.56782 18.6272 5.64657 18.2719C5.73882 17.8626 5.96157 17.6715 6.35982 17.6715C6.77382 17.6715 11.0713 18.8724 13.6093 18.8724Z" fill="url(#paint3_linear_36_20643)"/>
<defs>
<filter id="filter0_d_36_20643" x="10.6992" y="28.8438" width="14.5996" height="5.37305" filterUnits="userSpaceOnUse" color-interpolation-filters="sRGB">
<feFlood flood-opacity="0" result="BackgroundImageFix"/>
<feColorMatrix in="SourceAlpha" type="matrix" values="0 0 0 0 0 0 0 0 0 0 0 0 0 0 0 0 0 0 127 0" result="hardAlpha"/>
<feOffset dy="1"/>
<feGaussianBlur stdDeviation="0.5"/>
<feColorMatrix type="matrix" values="0 0 0 0 1 0 0 0 0 0.509681 0 0 0 0 0 0 0 0 0.371207 0"/>
<feBlend mode="normal" in2="BackgroundImageFix" result="effect1_dropShadow_36_20643"/>
<feBlend mode="normal" in="SourceGraphic" in2="effect1_dropShadow_36_20643" result="shape"/>
</filter>
<filter id="filter1_i_36_20643" x="8.09766" y="19.6235" width="19.7998" height="5.84717" filterUnits="userSpaceOnUse" color-interpolation-filters="sRGB">
<feFlood flood-opacity="0" result="BackgroundImageFix"/>
<feBlend mode="normal" in="SourceGraphic" in2="BackgroundImageFix" result="shape"/>
<feColorMatrix in="SourceAlpha" type="matrix" values="0 0 0 0 0 0 0 0 0 0 0 0 0 0 0 0 0 0 127 0" result="hardAlpha"/>
<feOffset/>
<feGaussianBlur stdDeviation="0.5"/>
<feComposite in2="hardAlpha" operator="arithmetic" k2="-1" k3="1"/>
<feColorMatrix type="matrix" values="0 0 0 0 0.0387428 0 0 0 0 0.0406183 0 0 0 0 0.0875053 0 0 0 1 0"/>
<feBlend mode="normal" in2="shape" result="effect1_innerShadow_36_20643"/>
</filter>
<filter id="filter2_d_36_20643" x="5.525" y="16.4751" width="24.948" height="5.49883" filterUnits="userSpaceOnUse" color-interpolation-filters="sRGB">
<feFlood flood-opacity="0" result="BackgroundImageFix"/>
<feColorMatrix in="SourceAlpha" type="matrix" values="0 0 0 0 0 0 0 0 0 0 0 0 0 0 0 0 0 0 127 0" result="hardAlpha"/>
<feOffset dy="0.6"/>
<feGaussianBlur stdDeviation="0.05"/>
<feColorMatrix type="matrix" values="0 0 0 0 0.565875 0 0 0 0 0.151272 0 0 0 0 0 0 0 0 0.15024 0"/>
<feBlend mode="normal" in2="BackgroundImageFix" result="effect1_dropShadow_36_20643"/>
<feBlend mode="normal" in="SourceGraphic" in2="effect1_dropShadow_36_20643" result="shape"/>
</filter>
<linearGradient id="paint0_linear_36_20643" x1="18" y1="0.73291" x2="18" y2="24.9103" gradientUnits="userSpaceOnUse">
<stop stop-color="#E04300"/>
<stop offset="1" stop-color="#FFA320"/>
</linearGradient>
<linearGradient id="paint1_linear_36_20643" x1="17.9988" y1="29.3003" x2="17.9988" y2="32.217" gradientUnits="userSpaceOnUse">
<stop stop-color="#3D0D00"/>
<stop offset="1" stop-color="#661C04"/>
</linearGradient>
<linearGradient id="paint2_linear_36_20643" x1="17.9985" y1="19.6227" x2="17.9985" y2="25.4697" gradientUnits="userSpaceOnUse">
<stop stop-color="#191A33"/>
<stop offset="0.872" stop-color="#3B426A"/>
</linearGradient>
<linearGradient id="paint3_linear_36_20643" x1="26.1337" y1="21.7217" x2="26.1337" y2="16.4751" gradientUnits="userSpaceOnUse">
<stop stop-color="#9A2F00"/>
<stop offset="1" stop-color="#D44800"/>
</linearGradient>
</defs>
</svg>
