<svg width="118" height="89" viewBox="0 0 118 89" fill="none" xmlns="http://www.w3.org/2000/svg">
<path d="M114.608 88.8985C103.221 86.2391 91.8973 83.162 80.5106 80.5025C78.3643 80.0075 78.0917 76.7203 80.306 76.2001C84.438 74.8594 88.4487 73.7566 92.5807 72.4159C88.594 70.5324 84.7674 70.9797 80.2812 71.8397C78.3681 72.0633 76.1584 71.986 74.9786 70.1849C73.0894 67.4222 75.036 63.0179 75.895 60.1578C78.1034 52.8885 81.2056 45.9249 82.5205 38.3499C83.845 29.5803 78.3971 31.1494 72.9932 34.6899C67.2299 38.347 61.8747 43.2617 57.3547 48.3025C49.5188 57.1991 41.6151 67.1109 30.8215 72.3999C24.8251 75.3384 14.2542 75.1941 12.0486 67.1725C9.26026 57.3549 12.8322 43.8844 17.9781 35.2649C20.4053 30.506 40.7081 1.28179 24.6167 4.3187C12.8322 6.55385 2.03007 20.3843 -5.50485 28.9847C-6.52926 30.1114 -8.36975 28.7229 -7.58328 27.4749C-1.23351 17.6708 7.91829 8.54572 18.061 2.47478C23.5816 -0.706425 35.1816 -2.28604 35.6441 7.09511C36.2137 18.0301 27.0523 28.3496 21.6054 37.2654C18.0372 42.7916 16.4843 50.2453 15.3586 56.5676C12.9811 70.0473 23.6542 72.3426 33.1414 66.0873C44.7311 58.3558 52.1777 45.8124 62.5243 36.6968C66.253 33.5012 78.5265 22.3705 84.3932 28.211C91.1484 34.9547 84.4053 49.0566 81.7796 56.2627C81.8427 55.8451 77.2071 67.8733 78.9991 67.8875C80.7909 67.9019 82.7668 67.2607 84.68 67.0374C88.3265 66.6482 91.488 67.2113 94.4013 68.8473C93.1141 65.4922 92.1862 62.0205 91.6177 58.4322C91.394 56.5191 94.0306 55.4651 95.3952 56.6108C104.467 64.9857 109.635 76.0172 116.963 85.7519C118.206 87.1353 116.575 89.4517 114.608 88.8985ZM99.1506 72.4688C99.5003 73.5467 98.7187 74.1974 97.9417 74.251C97.7573 74.9065 97.3349 75.4407 96.6163 75.6739C94.2808 76.4316 91.7657 77.2477 89.4302 78.0055C96.3449 79.7333 103.08 81.5192 109.995 83.2469C105.804 77.0613 102.093 70.5211 97.2997 64.9284C97.8777 67.3219 98.5142 69.8953 99.1506 72.4688Z" fill="#E3EAF3"/>
</svg>
