<svg width="120" height="26" viewBox="0 0 120 26" fill="none" xmlns="http://www.w3.org/2000/svg">
<path d="M11.3741 9.41392C11.2199 9.26316 11.035 9.14256 10.8501 9.05211C11.559 8.20788 11.9289 7.12245 11.9289 6.00687C11.9289 4.52948 11.2508 3.14254 10.0795 2.20787C9.15481 1.4541 7.98354 1.09229 6.4424 1.09229H0.03125V6.00687V8.17773V10.8913V13.6953V19.2431H7.24379C9.00069 19.2431 10.3261 18.8511 11.3432 18.0069C12.6686 16.9516 13.4392 15.3838 13.4392 13.7255C13.47 12.037 12.6994 10.4692 11.3741 9.41392ZM3.23682 4.01692H5.85676C7.33626 4.01692 7.82943 4.31843 8.10683 4.65008C8.44588 5.01189 8.66164 5.49431 8.66164 6.00687C8.66164 6.51944 8.47671 6.9717 8.10683 7.36366C7.7986 7.69532 7.33626 7.99683 5.85676 7.99683H3.23682V4.01692ZM9.43221 15.4742C9.00069 15.8963 8.35341 16.2883 6.65816 16.2883H3.23682V10.9516H6.68898C8.38424 10.9516 9.00069 11.3436 9.43221 11.7657C9.92538 12.2782 10.2028 12.9416 10.2028 13.6049C10.2028 14.2984 9.92538 14.9617 9.43221 15.4742Z" fill="#3E4581"/>
<path d="M26.9083 6.85107H23.8877V19.2431H26.9083V6.85107Z" fill="#3E4581"/>
<path d="M25.3675 1.06201C24.3195 1.06201 23.4873 1.87608 23.4873 2.93136C23.4873 3.95649 24.3195 4.77057 25.3675 4.77057C26.4463 4.77057 27.2785 3.95649 27.2785 2.93136C27.2785 1.90624 26.4155 1.06201 25.3675 1.06201Z" fill="#3E4581"/>
<path d="M38.2823 7.66514C37.2651 6.97167 36.0938 6.60986 34.7685 6.60986C33.628 6.60986 32.5492 6.88122 31.6553 7.39379C29.6519 8.53952 28.4189 10.7104 28.4189 13.032C28.4189 15.3838 29.621 17.4943 31.6553 18.64C32.5492 19.1526 33.7205 19.4541 34.8301 19.4541C36.0938 19.4541 37.2343 19.1225 38.1898 18.4591V18.5496C38.1898 19.9064 38.0048 20.8109 37.5733 21.4441C37.0185 22.2582 36.0938 22.6803 34.8609 22.6803C32.9191 22.6803 31.8711 21.6551 31.1005 20.6903L30.9156 20.4491L28.7272 22.4391L28.8505 22.62C29.7135 23.9466 31.8403 25.4843 34.9842 25.4843C37.4192 25.4843 39.4227 24.3687 40.4707 22.4089C40.9947 21.4139 41.2104 20.1777 41.2104 18.3988V6.85107H38.2823V7.66514ZM38.1898 15.1727C37.45 16.1074 36.3096 16.6802 35.1383 16.6802C33.0424 16.6802 31.4088 15.0823 31.4088 13.0621C31.4088 10.9817 32.9499 9.44404 35.015 9.44404C36.2171 9.44404 37.4192 10.0169 38.1898 10.9516V15.1727Z" fill="#3E4581"/>
<path d="M49.1941 6.60977C47.7454 6.60977 46.6358 7.12233 45.9269 7.60474V1.06201H42.9062V19.243H45.9269V10.9515C46.5433 10.258 47.5913 9.44395 49.1325 9.44395C50.0263 9.44395 50.8894 9.83591 51.4134 10.4992C51.7524 10.9213 52.0606 11.4942 52.0606 13.062V19.243H55.0813V13.1826C55.0813 11.1927 54.7114 9.89621 53.8484 8.81078C52.7079 7.42384 51.0435 6.60977 49.1941 6.60977Z" fill="#3E4581"/>
<path d="M74.7768 7.39379C73.8829 6.88122 72.8041 6.60986 71.6637 6.60986C70.3383 6.60986 69.167 6.97167 68.1498 7.66514V6.88122H65.2217V25.3034H68.2423V18.4893C69.1978 19.1526 70.3383 19.4843 71.602 19.4843C72.7116 19.4843 73.9137 19.1828 74.7768 18.6702C76.8111 17.4943 78.0132 15.4139 78.0132 13.0621C78.044 10.7405 76.7802 8.56967 74.7768 7.39379ZM71.2938 16.6802C70.1533 16.6802 69.0129 16.1074 68.2423 15.1727V10.9214C69.0129 9.98676 70.1842 9.41389 71.4171 9.41389C73.4822 9.41389 75.0233 10.9817 75.0233 13.032C75.0233 15.0823 73.3897 16.6802 71.2938 16.6802Z" fill="#3E4581"/>
<path d="M85.5034 6.60986C81.928 6.60986 79.3389 9.32344 79.3389 13.0621C79.3389 16.7405 82.1437 19.5144 85.8733 19.5144C89.0172 19.5144 90.62 17.8863 91.1748 17.1928L91.3289 16.9818L89.3255 15.1426L89.1405 15.3536C88.4624 16.1074 87.5069 16.8611 85.8733 16.8611C84.0548 16.8611 82.5444 15.5647 82.267 13.8461H91.5139L91.5447 13.6049C91.5755 13.3637 91.5755 13.1827 91.5755 13.0621C91.5755 9.38374 88.9556 6.60986 85.5034 6.60986ZM82.5753 11.2531C83.0684 10.0471 84.2397 9.23299 85.5959 9.23299C86.798 9.23299 87.9693 10.0772 88.4008 11.2531H82.5753Z" fill="#3E4581"/>
<path d="M102.702 7.66514C101.685 6.97167 100.514 6.60986 99.1884 6.60986C98.0479 6.60986 96.9691 6.88122 96.0753 7.39379C94.0718 8.53952 92.8389 10.7104 92.8389 13.032C92.8389 15.3838 94.041 17.4943 96.0753 18.64C96.9691 19.1526 98.1404 19.4541 99.25 19.4541C100.514 19.4541 101.716 19.0923 102.702 18.429V19.2129H105.63V6.85107H102.702V7.66514ZM102.61 15.1727C101.87 16.1074 100.73 16.6802 99.5582 16.6802C97.4623 16.6802 95.8287 15.0823 95.8287 13.0621C95.8287 10.9817 97.3698 9.44404 99.435 9.44404C100.637 9.44404 101.839 10.0169 102.61 10.9516V15.1727Z" fill="#3E4581"/>
<path d="M119.254 0.911133H116.233V19.2428H119.254V0.911133Z" fill="#3E4581"/>
<path d="M63.526 16.5294C63.1253 16.65 62.4472 16.7103 62.0157 16.7103C61.2759 16.7103 60.5362 16.4389 60.1972 16.047C59.8889 15.6852 59.8273 15.1123 59.8273 14.3887V9.50425H63.526V6.85097H59.8273V1.06201H56.8066V14.2078C56.8066 15.8359 57.1765 17.042 57.9471 17.856C58.9026 18.9113 60.2588 19.454 61.9232 19.454C62.4472 19.454 63.0329 19.3937 63.526 19.3033V16.5294Z" fill="#3E4581"/>
<path d="M22.285 6.73047C21.8843 6.64001 21.4528 6.60986 21.0213 6.60986C19.5726 6.60986 18.463 7.12243 17.754 7.60484V6.85107H14.7334V19.2431H17.754V10.9516C18.3705 10.2581 19.4185 9.44404 20.9596 9.44404C21.422 9.44404 21.8843 9.56465 22.3158 9.74555L22.285 6.73047Z" fill="#3E4581"/>
<path d="M114.877 6.73047C114.476 6.64001 114.045 6.60986 113.613 6.60986C112.164 6.60986 111.055 7.12243 110.346 7.60484V6.85107H107.325V19.2431H110.346V10.9516C110.962 10.2581 112.01 9.44404 113.551 9.44404C114.014 9.44404 114.476 9.56465 114.908 9.74555L114.877 6.73047Z" fill="#3E4581"/>
</svg>
