<svg width="36" height="37" viewBox="0 0 36 37" fill="none" xmlns="http://www.w3.org/2000/svg">
<path d="M18 0.73291C13.2261 0.73291 8.64774 2.62837 5.27209 6.00231C1.89642 9.37624 0 13.9523 0 18.7237C0 23.4951 1.89642 28.0713 5.27209 31.4453C8.64774 34.819 13.2261 36.7146 18 36.7146C22.7738 36.7146 27.3524 34.819 30.728 31.4453C34.1035 28.0713 36 23.4951 36 18.7237C36 13.9523 34.1035 9.37624 30.728 6.00231C27.3524 2.62837 22.7738 0.73291 18 0.73291Z" fill="url(#paint0_linear_36_20660)"/>
<path d="M23.5664 9.72852C18.621 9.72852 18.0022 13.8304 18.0022 13.8304C18.0022 13.8304 17.3857 9.72852 12.4402 9.72852C7.68374 9.72852 6.29774 14.7255 6.87824 17.3971C8.40824 24.4585 18.0022 29.406 18.0022 29.406C18.0022 29.406 27.5984 24.4585 29.1284 17.3971C29.7067 14.7255 28.3184 9.72852 23.5664 9.72852Z" fill="#3E4581"/>
<defs>
<linearGradient id="paint0_linear_36_20660" x1="18" y1="0.73291" x2="18" y2="36.7146" gradientUnits="userSpaceOnUse">
<stop stop-color="#FF6680"/>
<stop offset="1" stop-color="#E61739"/>
</linearGradient>
</defs>
</svg>
