<svg width="150" height="21" viewBox="0 0 150 21" fill="none" xmlns="http://www.w3.org/2000/svg">
<path d="M61.3467 0.866699H66.0244V20.094H61.3467V0.866699Z" fill="#3E4581"/>
<path d="M70.1989 9.08126H67.9404V6.11954H70.1989C70.1989 2.10511 71.6315 0.866699 75.6258 0.866699C76.3658 0.866699 77.1371 0.920074 77.8805 0.947202V4.17888C77.4422 4.1233 77.0309 4.09805 76.6161 4.09805C75.5431 4.09805 74.8819 4.23248 74.8819 5.4978V6.11954H77.6888V9.08126H74.8819V20.094H70.1989V9.08126Z" fill="#3E4581"/>
<path d="M90.7964 15.4879C90.7964 16.1885 91.0973 16.6979 91.5672 17.0508C92.0055 17.3754 92.6397 17.5366 93.301 17.5366C94.2089 17.5366 95.501 17.1577 95.501 16.0545C95.501 14.9792 94.0416 14.7606 93.2191 14.5696C90.2716 13.8465 86.5844 13.7658 86.5844 9.99461C86.5844 6.62895 90.2985 5.71387 93.1089 5.71387C96.245 5.71387 99.521 6.60392 99.6849 10.2361H95.3641C95.3641 9.64603 95.1449 9.26899 94.7572 9.02605C94.3736 8.783 93.8494 8.6757 93.2699 8.6757C92.5027 8.6757 91.2619 8.75631 91.2619 9.72631C91.2619 11.0439 94.4011 11.2889 96.5497 11.7444C99.4388 12.3112 100.182 14.3585 100.182 15.5149C100.182 19.2596 96.5496 20.4961 93.3283 20.4961C89.9427 20.4961 86.4748 19.3931 86.334 15.4879H90.7964Z" fill="#3E4581"/>
<path d="M101.867 0.866699H106.548V8.02866H106.604C107.32 6.60388 109.246 5.71383 110.952 5.71383C115.716 5.71383 116.1 9.10618 116.1 11.1277V20.094H111.422V13.3349C111.422 11.4225 111.641 9.48179 109.081 9.48179C107.32 9.48179 106.548 10.9384 106.548 12.472V20.094H101.867V0.866699Z" fill="#3E4581"/>
<path d="M122.411 14.2245C122.493 16.1354 123.624 17.4025 125.608 17.4025C126.732 17.4025 127.835 16.8861 128.274 15.8668H132.654C131.801 19.0986 128.744 20.4961 125.55 20.4961C120.9 20.4961 117.729 17.751 117.729 13.0651C117.729 8.783 121.228 5.71387 125.44 5.71387C130.56 5.71387 133.12 9.48182 132.901 14.2245H122.411ZM128.22 11.6642C128.137 10.102 127.01 8.81112 125.44 8.81112C123.788 8.81112 122.688 9.96936 122.411 11.6642H128.22Z" fill="#3E4581"/>
<path d="M134.812 6.11946H139.355V8.56662H139.41C140.099 6.79325 141.696 5.84961 143.704 5.84961C144.064 5.84961 144.448 5.87464 144.808 5.95503V10.1306C144.201 9.96935 143.65 9.8604 143.015 9.8604C140.706 9.8604 139.493 11.4224 139.493 13.1731V20.0939H134.812V6.11946Z" fill="#3E4581"/>
<path d="M79.8717 6.11969H84.5529V20.0941H79.8717V6.11969ZM84.5362 0.938965H79.8682V4.17902H84.5362V0.938965Z" fill="#3E4581"/>
<path d="M149.071 20.084H144.403V16.8423H149.071V20.084Z" fill="#3E4581"/>
<path d="M21.5419 14.2245C21.6239 16.1354 22.7549 17.4025 24.7359 17.4025C25.8665 17.4025 26.9666 16.8861 27.4054 15.8668H31.7814C30.9316 19.0986 27.8749 20.4961 24.6811 20.4961C20.0304 20.4961 16.8643 17.751 16.8643 13.0651C16.8643 8.783 20.3594 5.71387 24.5713 5.71387C29.6913 5.71387 32.251 9.48182 32.0315 14.2245H21.5419ZM27.3504 11.6642C27.2682 10.102 26.1409 8.81112 24.5713 8.81112C22.9193 8.81112 21.8193 9.96936 21.5419 11.6642H27.3504Z" fill="#3E4581"/>
<path d="M42.9669 20.094C42.8022 19.6616 42.7475 19.2297 42.6927 18.7731C41.4795 20.0135 39.6907 20.4961 37.9875 20.4961C35.2595 20.4961 33.1143 19.1487 33.1143 16.2692C33.1143 11.7177 38.1758 12.0718 41.428 11.4225C42.2231 11.2619 42.6652 10.9921 42.6652 10.1306C42.6652 9.0813 41.3699 8.6757 40.4069 8.6757C39.1149 8.6757 38.2891 9.24054 38.066 10.4254H33.69C33.7721 8.59332 34.653 7.40839 35.9209 6.6842C37.1888 5.98372 38.8373 5.71387 40.4618 5.71387C43.8509 5.71387 47.1235 6.43971 47.1235 10.3987V20.094H42.9669ZM39.7487 17.6704C41.9764 17.6704 42.72 16.4301 42.6104 13.5498C41.9491 13.9536 40.7392 14.0341 39.7212 14.3046C38.6727 14.5461 37.7921 14.9791 37.7921 16.0813C37.7921 17.2111 38.7003 17.6704 39.7487 17.6704Z" fill="#3E4581"/>
<path d="M49.5957 6.11946H54.1398V8.56662H54.1911C54.8802 6.79325 56.4772 5.84961 58.4854 5.84961C58.8451 5.84961 59.229 5.87464 59.5885 5.95503V10.1306C58.9824 9.96935 58.4306 9.8604 57.7999 9.8604C55.4866 9.8604 54.2736 11.4224 54.2736 13.1731V20.0939H49.5957V6.11946Z" fill="#3E4581"/>
<path d="M0.654297 0.955078H9.80169C13.511 0.955078 16.9983 2.61994 16.9983 7.23348C16.9983 12.0632 14.1814 13.947 9.80169 13.947H5.84341V20.4417H0.654297V0.955078ZM5.84341 10.0142H9.02011C10.6388 10.0142 11.8093 9.36024 11.8093 7.58505C11.8093 5.7571 10.6108 5.02336 9.02011 5.02336H5.84341V10.0142Z" fill="#3E4581"/>
<path d="M149.005 20.1479H144.31V16.8872H149.005V20.1479Z" fill="#3E4581"/>
</svg>
