<svg width="156" height="32" viewBox="0 0 156 32" fill="none" xmlns="http://www.w3.org/2000/svg">
<path fill-rule="evenodd" clip-rule="evenodd" d="M124.746 21.7163C124.975 21.0628 125.061 20.2388 125.061 18.8748C125.061 17.5106 124.975 16.715 124.746 16.0331C124.288 14.6691 123.229 13.9869 121.713 13.9869C120.196 13.9869 119.165 14.6973 118.708 16.0331C118.479 16.772 118.393 17.653 118.393 18.8748C118.393 20.1252 118.479 21.0059 118.708 21.7163C119.165 23.0521 120.196 23.7907 121.713 23.7907C123.229 23.7907 124.288 23.0803 124.746 21.7163ZM125.347 25.6948C125.176 25.6948 125.061 25.5812 125.061 25.4106V24.1036H125.033C124.375 25.1831 123.201 26.0072 121.14 26.0072C118.765 26.0072 117.105 24.8989 116.418 22.7391C116.046 21.6596 115.932 20.5799 115.932 18.8748C115.932 17.1983 116.046 16.1182 116.418 15.0385C117.105 12.8787 118.765 11.7704 121.14 11.7704C123.201 11.7704 124.375 12.5663 125.033 13.6458H125.061V6.65554C125.061 6.48498 125.176 6.37109 125.347 6.37109H127.179C127.351 6.37109 127.465 6.48498 127.465 6.65554V25.4106C127.465 25.5812 127.351 25.6948 127.179 25.6948H125.347ZM139.258 21.2902V19.784C139.258 19.6703 139.2 19.6134 139.086 19.6134H136.338C133.963 19.6134 132.932 20.2956 132.932 21.8299C132.932 23.2225 133.963 23.9614 135.794 23.9614C137.941 23.9614 139.258 22.9668 139.258 21.2902ZM139.601 25.6947C139.429 25.6947 139.315 25.5811 139.315 25.4105V24.2172H139.286C138.656 25.24 137.311 26.0074 135.222 26.0074C132.618 26.0074 130.614 24.6719 130.614 21.9153C130.614 19.0453 132.618 17.7096 135.966 17.7096H139.086C139.2 17.7096 139.258 17.6529 139.258 17.539V16.5444C139.258 14.6691 138.513 13.8732 135.966 13.8732C134.421 13.8732 133.448 14.271 132.646 14.8396C132.503 14.9532 132.331 14.9532 132.245 14.8109L131.473 13.5039C131.387 13.3333 131.415 13.2197 131.53 13.1061C132.56 12.3105 134.163 11.7706 136.195 11.7706C140.087 11.7706 141.576 13.0491 141.576 16.4026V25.4105C141.576 25.5811 141.461 25.6947 141.289 25.6947H139.601ZM145.297 30.8097C145.125 30.8097 145.011 30.6961 145.011 30.5256V28.8774C145.011 28.7069 145.125 28.5933 145.297 28.5933H145.813C146.929 28.5933 147.53 28.1103 148.131 26.5471L148.589 25.297L143.551 12.367C143.494 12.1968 143.58 12.0829 143.78 12.0829H145.784C145.955 12.0829 146.07 12.1683 146.127 12.367L149.733 22.1996H149.79L153.254 12.367C153.311 12.1683 153.425 12.0829 153.597 12.0829H155.543C155.715 12.0829 155.829 12.1968 155.772 12.367L150.363 26.7464C149.161 29.9572 148.102 30.8097 146.041 30.8097H145.297Z" fill="#3E4581"/>
<path fill-rule="evenodd" clip-rule="evenodd" d="M75.8053 12.1408C75.8053 10.038 74.403 8.7307 71.9989 8.7307H67.6487C67.5342 8.7307 67.4769 8.78765 67.4769 8.90126V15.3804C67.4769 15.494 67.5342 15.5507 67.6487 15.5507H71.9989C74.403 15.5507 75.8053 14.2437 75.8053 12.1408ZM65.2159 25.6956C65.0444 25.6956 64.9297 25.582 64.9297 25.4114V6.65633C64.9297 6.48604 65.0444 6.37215 65.2159 6.37215H72.142C75.8911 6.37215 78.3238 8.64556 78.3238 12.1408C78.3238 15.6361 75.8911 17.9092 72.142 17.9092H67.6487C67.5342 17.9092 67.4769 17.9661 67.4769 18.0798V25.4114C67.4769 25.582 67.3625 25.6956 67.1907 25.6956H65.2159ZM84.2493 25.8378C81.8449 25.8378 80.9005 24.7011 80.9005 22.2572V6.65652C80.9005 6.48596 81.015 6.37207 81.1867 6.37207H83.0184C83.1902 6.37207 83.3046 6.48596 83.3046 6.65652V22.1151C83.3046 23.2518 83.7339 23.6211 84.6783 23.6211H85.2223C85.3938 23.6211 85.5083 23.7347 85.5083 23.9053V25.5534C85.5083 25.724 85.3938 25.8378 85.2223 25.8378H84.2493ZM95.984 21.2911V19.7848C95.984 19.6712 95.9267 19.6143 95.8122 19.6143H93.0648C90.6891 19.6143 89.6587 20.2965 89.6587 21.8308C89.6587 23.2234 90.6892 23.9623 92.5208 23.9623C94.6674 23.9623 95.984 22.9677 95.984 21.2911ZM96.3273 25.6956C96.1555 25.6956 96.0411 25.582 96.0411 25.4114V24.218H96.0124C95.3829 25.2409 94.0376 26.0082 91.9484 26.0082C89.3441 26.0082 87.3407 24.6728 87.3407 21.9162C87.3407 19.0462 89.3441 17.7105 92.6926 17.7105H95.8122C95.9267 17.7105 95.984 17.6538 95.984 17.5399V16.5453C95.984 14.67 95.2395 13.8741 92.6926 13.8741C91.1471 13.8741 90.1741 14.2719 89.3725 14.8405C89.2297 14.9541 89.0579 14.9541 88.9719 14.8118L88.199 13.5048C88.1136 13.3342 88.142 13.2206 88.2564 13.107C89.2868 12.3114 90.8896 11.7715 92.9215 11.7715C96.8139 11.7715 98.3021 13.05 98.3021 16.4035V25.4114C98.3021 25.582 98.1876 25.6956 98.0159 25.6956H96.3273ZM110.924 25.6957C110.752 25.6957 110.638 25.582 110.638 25.4115V17.4546C110.638 15.2666 109.636 13.9878 107.575 13.9878C105.715 13.9878 104.427 15.2953 104.427 17.3127V25.4115C104.427 25.582 104.313 25.6957 104.141 25.6957H102.31C102.138 25.6957 102.023 25.582 102.023 25.4115V12.3681C102.023 12.1978 102.138 12.084 102.31 12.084H104.141C104.313 12.084 104.427 12.1978 104.427 12.3681V13.6184H104.456C105.114 12.5672 106.431 11.7713 108.291 11.7713C111.268 11.7713 113.042 13.789 113.042 16.8865V25.4115C113.042 25.582 112.928 25.6957 112.756 25.6957H110.924Z" fill="#3E4581"/>
<path fill-rule="evenodd" clip-rule="evenodd" d="M41.0451 13.1421C40.441 10.418 38.9538 7.84199 36.5617 5.84923C30.7168 0.979466 22.4274 1.94263 17.7525 7.47457L17.7522 7.47484L17.752 7.47511L0.771739 27.5678C-0.329943 28.8715 -0.24419 30.3217 0.978203 31.3402C2.20059 32.3587 3.65403 32.1905 4.75571 30.8871L14.9229 18.856L21.6895 10.8494L21.6909 10.8505C21.7062 10.8318 21.7206 10.8125 21.7362 10.7941C21.8288 10.6846 21.9233 10.5788 22.0191 10.4755C22.0347 10.459 22.0511 10.443 22.0667 10.4261C25.1696 7.14619 30.051 7.08681 33.258 9.75855C33.258 9.75855 33.2771 9.77048 33.3132 9.79028C37.08 12.9734 36.8798 18.071 34.2319 21.2042C34.1396 21.3135 33.9173 21.5554 33.9014 21.5719C30.7987 24.8519 25.9911 24.9224 22.6552 22.2078C21.9588 21.6194 21.3981 20.9656 20.9636 20.2706C20.4425 19.4373 19.2546 19.3533 18.6207 20.1055L16.443 22.6888C17.1957 23.9562 18.1821 25.129 19.4064 26.1491C25.2513 31.0186 33.5406 30.0554 38.2156 24.5238C38.2156 24.5238 41.9521 20.2215 41.0451 13.1421Z" fill="#3E4581"/>
<path fill-rule="evenodd" clip-rule="evenodd" d="M41.0542 13.1438L51.2217 1.11299C52.3234 -0.190752 53.7766 -0.3586 54.999 0.659606C56.2214 1.67808 56.3074 3.12852 55.2057 4.43199L38.2162 24.5233C33.5413 30.0553 25.2516 31.0182 19.4068 26.1487C18.1827 25.1288 17.1963 23.9558 16.4434 22.6887L18.6211 20.105C19.2552 19.3531 20.4432 19.4372 20.9642 20.2705C21.3987 20.9652 21.9679 21.6211 22.6643 22.2095C25.9745 24.9135 30.7939 24.8541 33.8969 21.5742C33.901 21.5699 34.1593 21.2865 34.2273 21.2062L41.0542 13.1438Z" fill="#3E4581"/>
</svg>
