<svg width="50" height="51" viewBox="0 0 50 51" fill="none" xmlns="http://www.w3.org/2000/svg">
<path d="M49.793 24.2313C49.8543 25.1456 49.3916 26.0154 48.5989 26.4751L35.8652 33.8603L34.7299 48.5367C34.6592 49.4503 34.0759 50.2445 33.2254 50.5854C32.375 50.9263 31.4047 50.755 30.7224 50.143L19.7638 40.3147L5.45477 43.7702C4.56411 43.9853 3.62838 43.6761 3.04137 42.9726C2.45435 42.269 2.31766 41.2932 2.68865 40.4555L8.64974 26.9961L0.941499 14.4553C0.461736 13.6747 0.466627 12.6893 0.954278 11.9135C1.44208 11.1377 2.32772 10.7061 3.23923 10.8001L17.8819 12.3101L27.4271 1.10389C28.0258 0.4012 28.9665 0.108289 29.8484 0.33069C30.7369 0.554786 31.4212 1.26375 31.6135 2.15974L34.7021 16.5524L48.3094 22.1674C49.1564 22.517 49.7315 23.3171 49.793 24.2313Z" fill="#FCB901"/>
<path d="M49.793 24.2313C49.8543 25.1456 49.3916 26.0154 48.5989 26.4751L35.8652 33.8603L34.7299 48.5367C34.6592 49.4503 34.0759 50.2445 33.2254 50.5854C32.375 50.9263 31.4047 50.755 30.7224 50.143L19.7638 40.3147L5.45477 43.7702C4.56411 43.9853 3.62838 43.6761 3.04137 42.9726C2.45435 42.269 2.31766 41.2932 2.68865 40.4555L8.64974 26.9961L0.941499 14.4553C0.461736 13.6747 0.466627 12.6893 0.954278 11.9135C1.44208 11.1377 2.32772 10.7061 3.23923 10.8001L17.8819 12.3101L27.4271 1.10389C28.0258 0.4012 28.9665 0.108289 29.8484 0.33069C30.7369 0.554786 31.4212 1.26375 31.6135 2.15974L34.7021 16.5524L48.3094 22.1674C49.1564 22.517 49.7315 23.3171 49.793 24.2313Z" fill="url(#paint0_linear_36_20682)"/>
<defs>
<linearGradient id="paint0_linear_36_20682" x1="9.1821" y1="56.1712" x2="57.8472" y2="36.6968" gradientUnits="userSpaceOnUse">
<stop stop-color="#AE67FA"/>
<stop offset="0.973958" stop-color="#F49867"/>
</linearGradient>
</defs>
</svg>
