<svg width="36" height="37" viewBox="0 0 36 37" fill="none" xmlns="http://www.w3.org/2000/svg">
<path d="M36 18.7237C36 23.4951 34.1035 28.0713 30.728 31.4453C27.3524 34.819 22.7738 36.7146 18 36.7146C13.2261 36.7146 8.64774 34.819 5.27209 31.4453C1.89642 28.0713 0 23.4951 0 18.7237C0 13.9523 1.89642 9.37624 5.27209 6.00231C8.64774 2.62837 13.2261 0.73291 18 0.73291C22.7738 0.73291 27.3524 2.62837 30.728 6.00231C34.1035 9.37624 36 13.9523 36 18.7237Z" fill="url(#paint0_linear_36_20652)"/>
<path d="M12.697 25.2183C12.3415 29.3675 14.3305 32.2168 18.0002 32.2168C21.6677 32.2168 23.659 29.3675 23.3035 25.2183C22.9502 21.0669 20.7947 18.7236 18.0002 18.7236C15.2057 18.7236 13.0502 21.0669 12.697 25.2183Z" fill="url(#paint1_linear_36_20652)"/>
<path d="M7.875 13.1018C7.875 11.2397 9.13275 9.72852 10.6875 9.72852C12.2422 9.72852 13.5 11.2397 13.5 13.1018C13.5 14.9661 12.2422 16.4751 10.6875 16.4751C9.13275 16.4751 7.875 14.9661 7.875 13.1018ZM22.5 13.1018C22.5 11.2397 23.76 9.72852 25.3125 9.72852C26.8673 9.72852 28.125 11.2397 28.125 13.1018C28.125 14.9661 26.8673 16.4751 25.3125 16.4751C23.76 16.4751 22.5 14.9661 22.5 13.1018Z" fill="url(#paint2_linear_36_20652)"/>
<g filter="url(#filter0_i_36_20652)">
<path d="M7.875 13.1018C7.875 11.2397 9.13275 9.72852 10.6875 9.72852C12.2422 9.72852 13.5 11.2397 13.5 13.1018C13.5 14.9661 12.2422 16.4751 10.6875 16.4751C9.13275 16.4751 7.875 14.9661 7.875 13.1018ZM22.5 13.1018C22.5 11.2397 23.76 9.72852 25.3125 9.72852C26.8673 9.72852 28.125 11.2397 28.125 13.1018C28.125 14.9661 26.8673 16.4751 25.3125 16.4751C23.76 16.4751 22.5 14.9661 22.5 13.1018Z" fill="#222222"/>
</g>
<path d="M10.0847 11.0044C10.5032 11.0988 10.7372 11.5711 10.6067 12.0591C10.4785 12.5494 10.0352 12.8687 9.61674 12.7742C9.19824 12.6798 8.96424 12.2075 9.09474 11.7173C9.22299 11.2315 9.66624 10.9077 10.0847 11.0044ZM25.0653 11.1461C25.5288 11.2518 25.7898 11.7758 25.6458 12.3155C25.5018 12.8619 25.0113 13.215 24.5456 13.1116C24.0821 13.0081 23.8211 12.4819 23.9651 11.9399C24.1068 11.3957 24.5996 11.0404 25.0676 11.1461H25.0653Z" fill="#4E506A"/>
<g filter="url(#filter1_d_36_20652)">
<path d="M24.9015 4.54632C25.0185 4.53507 25.1355 4.53057 25.2548 4.53057C26.3505 4.53057 27.4823 4.98934 28.3418 5.79443C28.4968 5.94209 28.5886 6.14406 28.5978 6.3579C28.607 6.57177 28.533 6.78089 28.3913 6.94134C28.3229 7.02003 28.2389 7.08408 28.1451 7.1296C28.0513 7.17511 27.9491 7.20118 27.8447 7.20621C27.7406 7.21125 27.6364 7.19517 27.5385 7.15892C27.4406 7.12269 27.3511 7.06703 27.2753 6.99532C26.6565 6.41286 25.7993 6.09577 25.0433 6.16549C24.7811 6.1851 24.5262 6.26192 24.2969 6.39051C24.0677 6.51912 23.8692 6.6964 23.7158 6.90986C23.6541 6.99352 23.5763 7.064 23.4869 7.11714C23.3976 7.17028 23.2986 7.205 23.1958 7.21926C23.0927 7.23349 22.9879 7.22699 22.8875 7.20012C22.7872 7.17325 22.6931 7.12656 22.611 7.06278C22.4429 6.92933 22.3332 6.73584 22.3051 6.52315C22.277 6.31043 22.3326 6.09512 22.4603 5.92261C22.7438 5.53073 23.1087 5.2048 23.5301 4.96723C23.9516 4.72966 24.4193 4.58607 24.9015 4.54632ZM7.65528 5.79443C8.48951 5.00146 9.5912 4.55041 10.7423 4.53057C11.2861 4.51879 11.8246 4.63933 12.3114 4.88184C12.7983 5.12434 13.2188 5.48152 13.5368 5.92261C13.6641 6.09503 13.7198 6.31002 13.6921 6.52256C13.6644 6.7351 13.5555 6.92868 13.3883 7.06278C13.306 7.1266 13.2118 7.17336 13.1112 7.20025C13.0107 7.22715 12.9057 7.23367 12.8025 7.21941C12.6994 7.20518 12.6001 7.17046 12.5106 7.11727C12.4211 7.06411 12.3431 6.99358 12.2813 6.90986C12.1277 6.69649 11.9293 6.5193 11.7 6.39071C11.4707 6.26212 11.216 6.18526 10.9538 6.16549C10.2 6.09577 9.34053 6.41286 8.72178 6.99532C8.64598 7.06703 8.55645 7.12269 8.45857 7.15892C8.3607 7.19517 8.2565 7.21125 8.15226 7.20621C8.04802 7.20118 7.94584 7.17511 7.85193 7.1296C7.75801 7.08408 7.67429 7.02003 7.60578 6.94134C7.46403 6.78089 7.38998 6.57177 7.39921 6.3579C7.40845 6.14406 7.50023 5.94209 7.65528 5.79443Z" fill="#222222"/>
</g>
<path d="M24.9015 4.54632C25.0185 4.53507 25.1355 4.53057 25.2548 4.53057C26.3505 4.53057 27.4823 4.98934 28.3418 5.79443C28.4968 5.94209 28.5886 6.14406 28.5978 6.3579C28.607 6.57177 28.533 6.78089 28.3913 6.94134C28.3229 7.02003 28.2389 7.08408 28.1451 7.1296C28.0513 7.17511 27.9491 7.20118 27.8447 7.20621C27.7406 7.21125 27.6364 7.19517 27.5385 7.15892C27.4406 7.12269 27.3511 7.06703 27.2753 6.99532C26.6565 6.41286 25.7993 6.09577 25.0433 6.16549C24.7811 6.1851 24.5262 6.26192 24.2969 6.39051C24.0677 6.51912 23.8692 6.6964 23.7158 6.90986C23.6541 6.99352 23.5763 7.064 23.4869 7.11714C23.3976 7.17028 23.2986 7.205 23.1958 7.21926C23.0927 7.23349 22.9879 7.22699 22.8875 7.20012C22.7872 7.17325 22.6931 7.12656 22.611 7.06278C22.4429 6.92933 22.3332 6.73584 22.3051 6.52315C22.277 6.31043 22.3326 6.09512 22.4603 5.92261C22.7438 5.53073 23.1087 5.2048 23.5301 4.96723C23.9516 4.72966 24.4193 4.58607 24.9015 4.54632ZM7.65528 5.79443C8.48951 5.00146 9.5912 4.55041 10.7423 4.53057C11.2861 4.51879 11.8246 4.63933 12.3114 4.88184C12.7983 5.12434 13.2188 5.48152 13.5368 5.92261C13.6641 6.09503 13.7198 6.31002 13.6921 6.52256C13.6644 6.7351 13.5555 6.92868 13.3883 7.06278C13.306 7.1266 13.2118 7.17336 13.1112 7.20025C13.0107 7.22715 12.9057 7.23367 12.8025 7.21941C12.6994 7.20518 12.6001 7.17046 12.5106 7.11727C12.4211 7.06411 12.3431 6.99358 12.2813 6.90986C12.1277 6.69649 11.9293 6.5193 11.7 6.39071C11.4707 6.26212 11.216 6.18526 10.9538 6.16549C10.2 6.09577 9.34053 6.41286 8.72178 6.99532C8.64598 7.06703 8.55645 7.12269 8.45857 7.15892C8.3607 7.19517 8.2565 7.21125 8.15226 7.20621C8.04802 7.20118 7.94584 7.17511 7.85193 7.1296C7.75801 7.08408 7.67429 7.02003 7.60578 6.94134C7.46403 6.78089 7.38998 6.57177 7.39921 6.3579C7.40845 6.14406 7.50023 5.94209 7.65528 5.79443Z" fill="url(#paint3_linear_36_20652)"/>
<defs>
<filter id="filter0_i_36_20652" x="7.875" y="9.72852" width="20.25" height="6.74658" filterUnits="userSpaceOnUse" color-interpolation-filters="sRGB">
<feFlood flood-opacity="0" result="BackgroundImageFix"/>
<feBlend mode="normal" in="SourceGraphic" in2="BackgroundImageFix" result="shape"/>
<feColorMatrix in="SourceAlpha" type="matrix" values="0 0 0 0 0 0 0 0 0 0 0 0 0 0 0 0 0 0 127 0" result="hardAlpha"/>
<feOffset/>
<feGaussianBlur stdDeviation="0.5"/>
<feComposite in2="hardAlpha" operator="arithmetic" k2="-1" k3="1"/>
<feColorMatrix type="matrix" values="0 0 0 0 0.0980392 0 0 0 0 0.101961 0 0 0 0 0.2 0 0 0 0.819684 0"/>
<feBlend mode="normal" in2="shape" result="effect1_innerShadow_36_20652"/>
</filter>
<filter id="filter1_d_36_20652" x="4.39844" y="2.52979" width="27.2002" height="8.69678" filterUnits="userSpaceOnUse" color-interpolation-filters="sRGB">
<feFlood flood-opacity="0" result="BackgroundImageFix"/>
<feColorMatrix in="SourceAlpha" type="matrix" values="0 0 0 0 0 0 0 0 0 0 0 0 0 0 0 0 0 0 127 0" result="hardAlpha"/>
<feOffset dy="1"/>
<feGaussianBlur stdDeviation="1.5"/>
<feColorMatrix type="matrix" values="0 0 0 0 0.803922 0 0 0 0 0.388235 0 0 0 0 0.00392157 0 0 0 0.145679 0"/>
<feBlend mode="normal" in2="BackgroundImageFix" result="effect1_dropShadow_36_20652"/>
<feBlend mode="normal" in="SourceGraphic" in2="effect1_dropShadow_36_20652" result="shape"/>
</filter>
<linearGradient id="paint0_linear_36_20652" x1="18" y1="4.42103" x2="18" y2="36.7146" gradientUnits="userSpaceOnUse">
<stop stop-color="#FEEA70"/>
<stop offset="1" stop-color="#F69B30"/>
</linearGradient>
<linearGradient id="paint1_linear_36_20652" x1="18" y1="18.7236" x2="18" y2="32.2168" gradientUnits="userSpaceOnUse">
<stop stop-color="#472315"/>
<stop offset="1" stop-color="#8B3A0E"/>
</linearGradient>
<linearGradient id="paint2_linear_36_20652" x1="18" y1="9.72852" x2="18" y2="16.4751" gradientUnits="userSpaceOnUse">
<stop stop-color="#191A33"/>
<stop offset="0.872" stop-color="#3B426A"/>
</linearGradient>
<linearGradient id="paint3_linear_36_20652" x1="17.9981" y1="4.52871" x2="17.9981" y2="7.22733" gradientUnits="userSpaceOnUse">
<stop stop-color="#E78E0D"/>
<stop offset="1" stop-color="#CB6000"/>
</linearGradient>
</defs>
</svg>
