<svg width="136" height="24" viewBox="0 0 136 24" fill="none" xmlns="http://www.w3.org/2000/svg">
<path d="M120.195 14.3849C120.195 9.10104 121.665 5.40237 127.944 5.40237C134.224 5.40237 135.694 9.10104 135.694 14.3849C135.694 19.6687 134.224 23.3673 127.944 23.3673C121.798 23.3673 120.195 19.6687 120.195 14.3849ZM131.819 14.3849C131.819 10.6862 131.285 8.57266 128.078 8.57266C124.871 8.57266 124.337 10.6862 124.337 14.3849C124.337 18.0835 124.871 20.197 128.078 20.197C131.285 20.197 131.819 17.9514 131.819 14.3849ZM12.9048 22.7069C13.0384 22.839 13.172 22.971 13.3056 22.971H14.7753C15.0425 22.971 15.3098 22.7069 15.3098 22.4427V6.19494C15.3098 5.93075 15.0425 5.66656 14.7753 5.66656H11.9695C11.7023 5.66656 11.435 5.93075 11.435 6.19494V19.0082C10.2325 19.6687 8.7628 20.065 7.42668 20.065C5.55612 20.065 4.62083 19.2724 4.62083 17.5551V6.19494C4.62083 5.93075 4.35361 5.66656 4.08639 5.66656H1.28054C1.01332 5.66656 0.746094 5.93075 0.746094 6.19494V17.8193C0.746094 21.1217 2.34943 23.3673 6.75862 23.3673C8.7628 23.3673 10.767 22.7069 12.3703 21.518L12.9048 22.7069ZM45.506 10.8183C45.506 7.5159 43.9027 5.27028 39.7607 5.27028C37.7565 5.27028 35.886 5.93075 34.149 6.98752C33.481 5.93075 32.0112 5.27028 29.7398 5.27028C27.8693 5.27028 25.9987 5.93075 24.529 7.11961L23.9945 5.93075C23.8609 5.79866 23.7273 5.66656 23.5937 5.66656H22.124C21.8567 5.66656 21.5895 5.93075 21.5895 6.19494V22.4427C21.5895 22.7069 21.8567 22.971 22.124 22.971H25.0634C25.3306 22.971 25.5979 22.7069 25.5979 22.4427V9.62942C26.6668 8.96895 28.0029 8.57266 29.2054 8.57266C30.8087 8.57266 31.744 9.10104 31.744 10.8183V22.4427C31.744 22.7069 32.0112 22.971 32.2785 22.971H35.2179C35.4851 22.971 35.7524 22.7069 35.7524 22.4427V9.62942C36.8213 8.96895 38.1574 8.57266 39.3599 8.57266C40.8296 8.57266 41.8985 9.10104 41.8985 10.8183V22.4427C41.8985 22.7069 42.1657 22.971 42.4329 22.971H45.3724C45.6396 22.971 45.9068 22.7069 45.9068 22.4427L45.506 10.8183ZM54.458 21.518C56.0613 22.7069 58.0655 23.3673 60.0697 23.3673C65.1469 23.3673 67.0175 19.9329 67.0175 14.3849C67.0175 8.83685 65.1469 5.40237 60.0697 5.40237C58.4664 5.40237 56.7294 5.93075 55.3933 6.72333V1.43951C55.3933 1.17532 55.1261 0.911133 54.8588 0.911133H51.9194C51.6522 0.911133 51.5185 1.17532 51.5185 1.43951V22.4427C51.5185 22.7069 51.7858 22.971 52.053 22.971H53.5227C53.6563 22.971 53.9235 22.839 53.9235 22.7069L54.458 21.518ZM59.1344 20.065C57.7983 20.065 56.4622 19.6687 55.3933 19.0082V9.62942C56.5958 8.96895 57.7983 8.57266 59.1344 8.57266C62.6083 8.57266 63.0091 11.2146 63.0091 14.3849C63.0091 17.5551 62.6083 20.065 59.1344 20.065ZM81.4476 8.70476C81.0467 8.70476 80.5123 8.57266 80.1115 8.57266C78.5081 8.57266 77.0384 8.83685 75.7023 9.62942V22.4427C75.7023 22.7069 75.435 22.971 75.1678 22.971H72.2284C71.9611 22.971 71.6939 22.7069 71.6939 22.4427V6.19494C71.6939 5.93075 71.9611 5.66656 72.2284 5.66656H73.6981C73.8317 5.66656 74.0989 5.79866 74.0989 5.93075L74.6334 7.11961C76.2367 5.93075 78.1073 5.27028 80.1115 5.27028C80.5123 5.27028 81.0467 5.27028 81.4476 5.40237C81.7148 5.40237 81.982 5.79866 81.982 6.06285V8.17637C81.982 8.44057 81.7148 8.70476 81.4476 8.70476ZM91.4684 15.0453C89.7315 15.3095 88.6626 15.8379 88.6626 17.6872C88.6626 19.0082 89.197 20.197 91.3348 20.197C92.671 20.197 94.0071 19.8008 95.076 19.0082V14.5169L91.4684 15.0453ZM96.1449 21.518C94.6751 22.7069 92.8046 23.3673 90.934 23.3673C86.3912 23.3673 84.9215 20.5933 84.9215 17.8193C84.9215 14.1207 87.3265 12.5355 91.3348 12.1392L95.2096 11.875V11.0825C95.2096 9.36523 94.4079 8.57266 91.7357 8.57266C90.1323 8.57266 88.529 8.83685 86.9256 9.36523H86.792C86.5248 9.36523 86.2576 9.10104 86.2576 8.83685V6.59123C86.2576 6.32704 86.3912 6.19494 86.6584 6.06285C88.3954 5.53447 90.2659 5.13818 92.0029 5.13818C97.7482 5.13818 99.0843 7.64799 99.0843 11.2146V22.1785C99.0843 22.4427 98.8171 22.7069 98.5499 22.7069H97.0801C96.9465 22.7069 96.6793 22.5748 96.6793 22.4427L96.1449 21.518ZM115.919 19.4045H116.053C116.32 19.4045 116.587 19.6687 116.587 19.9329V22.1785C116.587 22.4427 116.454 22.5748 116.32 22.7069C114.85 23.2352 113.381 23.4994 111.777 23.3673C105.631 23.3673 103.761 19.6687 103.761 14.3849C103.761 9.10104 105.631 5.40237 111.777 5.40237C113.247 5.40237 114.85 5.53447 116.187 6.06285C116.32 6.19494 116.454 6.32704 116.454 6.59123V8.83685C116.454 9.10104 116.187 9.36523 115.919 9.36523H115.786C114.583 8.96895 113.247 8.83685 111.911 8.83685C108.571 8.83685 107.502 11.0825 107.502 14.5169C107.502 17.9514 108.437 20.197 111.911 20.197C113.381 19.9329 114.717 19.8008 115.919 19.4045Z" fill="#3E4581"/>
</svg>
