<svg width="476" height="580" viewBox="0 0 476 580" fill="none" xmlns="http://www.w3.org/2000/svg">
<path fill-rule="evenodd" clip-rule="evenodd" d="M648.981 -102.147C648.891 -102.651 649.073 -103.166 649.459 -103.502C650.215 -104.158 650.098 -105.364 649.225 -105.854C649.125 -105.91 649.025 -105.967 648.924 -106.022C648.478 -106.272 648.166 -106.708 648.076 -107.211L646.486 -116.109C645.847 -119.683 642.431 -122.063 638.857 -121.424L634.739 -120.688C626.301 -119.181 617.669 -120.084 609.329 -122.063C600.745 -124.1 592.116 -125.151 583.342 -125.126C554.512 -125.042 526.604 -113.341 496.088 -92.0404C464.591 -70.0548 436.403 -34.6529 412.296 -0.9566C403.285 11.638 394.922 23.8624 387.105 35.288C373.276 55.5023 361.157 73.2162 350.191 86.056C335.07 103.761 318.871 108.189 306.41 104.996C293.781 101.76 279.69 89.3461 272.042 62.1691L271.871 61.5617C263.4 31.4568 249.44 -18.1518 223.913 -58.2833C202.385 -92.1275 171.115 -121.312 126.764 -124.927C125.391 -125.038 124.03 -124.575 122.99 -123.672L98.1376 -102.091C96.1375 -100.354 99.5921 -94.6242 102.209 -95.0324C146.215 -101.895 176.611 -78.524 199.403 -42.6926C222.447 -6.46447 235.454 39.3901 244.079 70.0381C253.51 103.551 273.343 126.511 299.2 133.136C301.067 133.614 302.939 134.001 304.812 134.297C307.239 134.681 311.194 146.138 309.45 147.869C286.146 171.003 281.104 206.214 293.272 242.242C300.45 263.492 312.864 290.416 326.051 319.015L326.052 319.018L326.056 319.026C332.964 334.009 340.085 349.451 346.775 364.78C366.949 410.997 384.122 457.879 386.99 498.107C389.962 539.792 384.74 568.155 371.92 589.77C364.956 601.512 355.295 612.031 342.148 621.863C336.224 626.292 332.947 633.556 334.249 640.838C336.464 653.235 350.297 659.768 360.521 652.416C378.064 639.8 392.118 625.316 402.458 607.883C420.434 577.573 425.641 540.954 422.406 495.582C419.067 448.752 399.575 396.988 379.316 350.576C371.744 333.228 364.155 316.792 357.062 301.43C344.512 274.251 333.515 250.433 326.911 230.88C317.804 203.918 323.307 184.144 334.465 173.067C345.773 161.84 367.631 154.83 400.944 163.831L401.689 164.033C438.591 174.005 499.4 190.437 557.511 188.792C606.517 187.404 656.738 172.873 688.32 128.592C689.297 127.222 689.664 125.503 689.368 123.846L682.291 84.2423C681.721 81.055 673.543 81.0903 672.332 84.0928C651.962 134.575 608.39 151.831 556.506 153.3C504.047 154.786 447.774 139.706 410.206 129.555C385.152 122.785 361.793 122.535 342.128 128.585C353.052 123.46 363.319 115.413 372.28 104.921C384.198 90.967 397.904 70.9549 412.464 49.6974L412.466 49.6954C420.095 38.5569 427.958 27.0761 435.921 15.9455C459.927 -17.609 485.659 -49.3349 512.715 -68.2207C540.751 -87.791 562.866 -96.0176 583.426 -96.0772C597.062 -96.1167 611.104 -92.5683 626.838 -84.8309C627.269 -84.6186 627.788 -84.6829 628.151 -84.9982C628.721 -85.4926 629.601 -85.3398 629.968 -84.6811C637.858 -70.5293 645.867 -54.8012 653.014 -38.4365C658.294 -26.3468 663.026 -14.0841 666.878 -2.001L648.981 -102.147ZM24.237 -30.0746C30.5154 -38.8539 37.1451 -47.3208 44.0176 -55.0945L8.46581 -24.222C5.19966 -21.3857 0.662756 -24.4889 2.58721 -28.363C3.33775 -29.8739 3.20097 -31.8137 2.11353 -33.1036L-3.96553 -40.3144C-12.0829 -49.9431 -27.3287 -48.6843 -32.507 -37.2044C-41.3916 -17.5082 -46.3212 2.06284 -46.5589 22.3306C-46.9722 57.5674 -33.171 91.884 -7.68345 129.56C18.623 168.446 61.3854 203.529 102.136 233.594C117.368 244.831 132.158 255.271 145.982 265.028C170.44 282.291 191.872 297.419 207.368 311.051C228.736 329.848 233.858 349.723 229.733 364.896C225.553 380.272 210.129 397.272 176.778 406.133L176.032 406.331C139.088 416.146 78.2099 432.32 28.707 462.8C-13.0402 488.505 -49.2666 526.2 -54.4774 580.339C-54.6386 582.015 -54.0968 583.687 -53.012 584.974L-27.0809 615.733C-24.994 618.208 -17.9292 614.089 -18.3813 610.883C-25.9821 556.979 3.12443 520.249 47.323 493.034C92.011 465.518 148.284 450.441 185.895 440.448C227.021 429.522 255.436 405.694 263.995 374.21C272.61 342.523 259.371 309.508 230.819 284.392C213.978 269.577 189.765 252.468 164.046 234.294L164.043 234.292L164.038 234.288C150.563 224.766 136.674 214.952 123.215 205.023C82.636 175.084 44.3225 143.069 21.7249 109.665C3.97306 83.4244 -5.87223 61.4593 -9.46835 41.4196C-10.9959 32.9076 -8.95062 24.2405 -4.82212 16.6416C3.03855 2.17323 12.921 -14.2505 24.237 -30.0746ZM29.3884 682.715C38.7662 691.253 48.9954 699.507 59.6128 707.337C76.5894 719.857 94.163 731.006 110.161 740.251C121.838 746.999 123.679 763.435 113.367 772.128C110.591 774.469 106.443 774.116 104.102 771.339L29.3884 682.715Z" fill="white"/>
</svg>
